<?xml version="1.0" encoding="utf-8"?>
<!-- Generator: Adobe Illustrator 24.3.0, SVG Export Plug-In . SVG Version: 6.00 Build 0)  -->
<svg version="1.1" id="Layer_1" xmlns="http://www.w3.org/2000/svg" xmlns:xlink="http://www.w3.org/1999/xlink" x="0px" y="0px"
	 viewBox="0 0 1024.2 579.4" style="enable-background:new 0 0 1024.2 579.4;" xml:space="preserve">
<style type="text/css">
	.st0{fill:#F2F2F2;}
	.st1{fill:#FFFFFF;}
	.st2{fill:#CCCCCC;}
	.st3{fill:#E6E6E6;}
	.st4{fill:#993942;}
	.st5{fill:#FFB6B6;}
	.st6{fill:#2F2E41;}
	.st7{fill:#3F3D56;}
	.st8{fill:#A0616A;}
	.st9{fill:#CACACA;}
	.st10{fill:#6C63FF;}
	.st11{fill:#E6E7E8;}
</style>
<path class="st0" d="M632,247.8H318.9c-7.5,0-13.6-6.1-13.6-13.6c0,0,0,0,0,0V131.9c0-7.5,6.1-13.6,13.6-13.6c0,0,0,0,0,0h386.6
	c7.5,0,13.6,6.1,13.6,13.6c0,0,0,0,0,0v28.9C719.1,208.9,680.1,247.8,632,247.8z"/>
<path class="st1" d="M552.4,154.6H389.6c-1.9,0-3.5-1.6-3.5-3.5c0-1.9,1.6-3.5,3.5-3.5h162.8c1.9,0,3.5,1.6,3.5,3.5
	C555.9,153.1,554.3,154.6,552.4,154.6z"/>
<path class="st1" d="M634.7,169H389.6c-1.9,0-3.5-1.6-3.5-3.5c0-1.9,1.6-3.5,3.5-3.5h245.1c1.9,0,3.5,1.6,3.5,3.5
	C638.3,167.4,636.7,169,634.7,169z"/>
<path class="st1" d="M634.7,185.5H389.6c-1.9,0-3.5-1.6-3.5-3.5c0-1.9,1.6-3.5,3.5-3.5h245.1c1.9,0,3.5,1.6,3.5,3.5
	C638.3,183.9,636.7,185.5,634.7,185.5z"/>
<path class="st1" d="M634.7,202H389.6c-1.9,0-3.5-1.6-3.5-3.5c0-1.9,1.6-3.5,3.5-3.5h245.1c1.9,0,3.5,1.6,3.5,3.5
	C638.3,200.4,636.7,202,634.7,202z"/>
<path class="st1" d="M634.7,218.4H389.6c-1.9,0-3.5-1.6-3.5-3.5c0-1.9,1.6-3.5,3.5-3.5h245.1c1.9,0,3.5,1.6,3.5,3.5
	C638.3,216.9,636.7,218.4,634.7,218.4z"/>
<path class="st1" d="M706.2,230.5h-24.6c-2.3,0-4.3-1.3-5.3-3.4c-4.7-10.4-3.5-20.7,0.3-30.9c0.8-2.2,3-3.7,5.4-3.7H706
	c3.2,0,5.8,2.6,5.8,5.8c0,0.8-0.2,1.6-0.5,2.3c-3,6.9-3,14.2,0.3,22c1.2,2.9-0.1,6.3-3.1,7.6C707.8,230.3,707,230.5,706.2,230.5z"/>
<path class="st2" d="M706.2,231h-24.6c-2.5,0-4.7-1.4-5.7-3.7c-4.2-9.3-4.1-19.2,0.3-31.3c0.9-2.4,3.3-4.1,5.9-4
	c7.2-4.6,15-5.3,23.9,0c3.5,0,6.3,2.8,6.3,6.3c0,0.8-0.2,1.7-0.5,2.5c-3,6.9-2.9,14.2,0.3,21.6c0.8,1.9,0.6,4.1-0.5,5.9
	C710.3,229.9,708.3,231,706.2,231z M682.1,193c-2.2,0-4.2,1.3-4.9,3.4c-4.3,11.8-4.4,21.5-0.3,30.5c0.9,1.9,2.7,3.1,4.8,3.1h24.6
	c1.8,0,3.4-0.9,4.4-2.4c1-1.5,1.1-3.3,0.4-4.9c-3.3-7.6-3.4-15.2-0.3-22.3c1.1-2.7-0.1-5.8-2.8-6.9c-0.7-0.3-1.4-0.4-2.1-0.4
	L682.1,193z"/>
<path class="st3" d="M701.1,206h-17c-1.4,0-2.5-1.1-2.5-2.5s1.1-2.5,2.5-2.5h17c1.4,0,2.5,1.1,2.5,2.5S702.5,206,701.1,206z"/>
<path class="st3" d="M701.1,215.5h-17c-1.4,0-2.5-1.1-2.5-2.5s1.1-2.5,2.5-2.5h17c1.4,0,2.5,1.1,2.5,2.5S702.5,215.5,701.1,215.5z"
	/>
<path class="st3" d="M701.1,225h-17c-1.4,0-2.5-1.1-2.5-2.5s1.1-2.5,2.5-2.5h17c1.4,0,2.5,1.1,2.5,2.5S702.5,225,701.1,225z"/>
<circle class="st4" cx="708.6" cy="117.9" r="27.8"/>
<path class="st1" d="M704.9,132.4c-1,0-1.9-0.5-2.5-1.2l-7.6-10.1c-1-1.4-0.8-3.3,0.6-4.3c1.4-1,3.3-0.8,4.3,0.6c0,0,0,0,0,0l5,6.6
	l12.7-19.1c0.9-1.4,2.9-1.8,4.3-0.9s1.8,2.9,0.9,4.3L707.4,131C706.9,131.8,705.9,132.3,704.9,132.4
	C704.9,132.4,704.9,132.4,704.9,132.4z"/>
<path class="st0" d="M887,467.3h-10.4c-2.1,0-3.8,1.7-3.8,3.8l0,0c0,2.1-1.7,3.8-3.8,3.8h-34.7c-2.1,0-3.8-1.7-3.8-3.8l-0.7-3.8
	l0,0.1l0-0.1l-6.3-8c-0.4-0.5-1.1-0.9-1.7-0.8H810c-1.2,0-2.2,1-2.2,2.2l-0.2,6.7h-4.5c-3.9,0-7.1,3.2-7.1,7.1v46.5
	c0,3.5,2.8,6.3,6.3,6.3c0,0,0,0,0,0H887c3.5,0,6.3-2.8,6.3-6.3v-47.2C893.3,470.2,890.4,467.3,887,467.3
	C887,467.3,887,467.3,887,467.3z"/>
<path class="st3" d="M829.9,467.1h-22.1v-6.7c0-1.2,1-2.2,2.2-2.2h11.8c0.7,0,1.3,0.3,1.7,0.8L829.9,467.1z"/>
<path class="st1" d="M841.2,522.1h-36.9c-2.4,0-4.4-2-4.4-4.4v-10.1c0-2.4,2-4.4,4.4-4.4h44.2c2.4,0,4.4,2,4.4,4.4v2.7
	C853,516.8,847.7,522.1,841.2,522.1z"/>
<path class="st0" d="M814.9,510.8h-9.1c-1.2,0-2.2-1-2.2-2.2c0-1.2,1-2.2,2.2-2.2h9.1c1.2,0,2.2,1,2.2,2.2
	C817.2,509.8,816.2,510.8,814.9,510.8z"/>
<path class="st0" d="M845.8,517.9h-40c-1.2,0-2.2-1-2.2-2.2s1-2.2,2.2-2.2h40c1.2,0,2.2,1,2.2,2.2S847.1,517.9,845.8,517.9
	L845.8,517.9z"/>
<path class="st0" d="M924,518.3h-10.4c-2.1,0-3.8,1.7-3.8,3.8l0,0c0,2.1-1.7,3.8-3.8,3.8h-34.7c-2.1,0-3.8-1.7-3.8-3.8l-0.7-3.8
	l0,0.1l0-0.1l-6.3-8c-0.4-0.5-1.1-0.9-1.7-0.8H847c-1.2,0-2.2,1-2.2,2.2l-0.2,6.7h-4.5c-3.9,0-7.1,3.2-7.1,7.1v46.5
	c0,3.5,2.8,6.3,6.3,6.3c0,0,0,0,0,0H924c3.5,0,6.3-2.8,6.3-6.3v-47.2C930.3,521.2,927.4,518.3,924,518.3
	C924,518.3,924,518.3,924,518.3z"/>
<path class="st3" d="M866.9,518.1h-22.1v-6.7c0-1.2,1-2.2,2.2-2.2h11.8c0.7,0,1.3,0.3,1.7,0.8L866.9,518.1z"/>
<path class="st1" d="M878.2,573.1h-36.9c-2.4,0-4.4-2-4.4-4.4v-10.1c0-2.4,2-4.4,4.4-4.4h44.2c2.4,0,4.4,2,4.4,4.4v2.7
	C890,567.8,884.7,573.1,878.2,573.1z"/>
<path class="st0" d="M851.9,561.8h-9.1c-1.2,0-2.2-1-2.2-2.2s1-2.2,2.2-2.2h9.1c1.2,0,2.2,1,2.2,2.2S853.2,561.8,851.9,561.8z"/>
<path class="st0" d="M882.8,568.9h-40c-1.2,0-2.2-1-2.2-2.2s1-2.2,2.2-2.2h40c1.2,0,2.2,1,2.2,2.2S884.1,568.9,882.8,568.9z"/>
<polygon class="st5" points="758.5,560.7 749.9,560.7 745.8,527.6 758.5,527.6 "/>
<path class="st6" d="M732.5,573.4c0,2,1.6,3.6,3.6,3.6h16.2l0.5-1l2.3-4.7l0.9,4.7l0.2,1h6.1l-0.1-1l-1.6-19.5l-2.1-0.1l-9.2-0.5
	l-2.3-0.1v5.8C745.3,563.3,731.9,570.2,732.5,573.4z"/>
<polygon class="st5" points="900.9,494.3 896.7,501.8 865.7,489.4 871.8,478.3 "/>
<path class="st6" d="M899.5,523.2c1.8,1,4,0.3,4.9-1.4l7.8-14.2l-0.7-0.9l-3-4.3l4.6,1.5l1,0.3l3-5.3l-1-0.4l-17.9-8l-1.1,1.8
	l-4.9,7.8l-1.2,1.9l5.1,2.8C896.8,507.1,896.3,522.2,899.5,523.2z"/>
<path class="st6" d="M772.9,342.1l32.5,13.8c0,0,10.4,22.2,3.2,25.4v58.7l74.2,43l-22.4,37.4c0,0-28.7-7.4-28.4-14.2
	c0.3-6.8,3.6-9.5-6.2-10.3c-9.9-0.9-15.4-0.1-15.2-6.2c0.3-6-34.8-37.5-34.8-37.5L772.9,342.1z"/>
<path class="st6" d="M780.7,353.4l-8.2-9.3c0,0-18.5,30.4-18.4,36.6s-15.7,38.4-15.7,38.4L718.7,534c0,0,37.7,9,40.6,9.2
	s7.8,1.8,4.7-4s0-5.8,0-5.8L766,445l14.7-60.8V353.4z"/>
<path class="st4" d="M776.4,264.4l15.8-3.8l9.1,11.2l0,0c8.5,8,12.3,19.7,10,31.1l-8.4,43.5c0,0,15.1,13.9,13.3,21.5
	c-3.1,12.3-36.9,1.4-42.8,2.3s-13.4-8.6-14.7-14s3.9-18.3,5.7-18c1.8,0.3-4.9-26.7-4.9-26.7s0.5-18.1,6.8-23.1
	c3.9-3.2,7-7.1,9.2-11.6L776.4,264.4z"/>
<path class="st5" d="M707.9,196.2c0,4,3.4,7.3,7.4,7.2c0.4,0,0.8,0,1.2-0.1l19.9,30.6l9.8-3.4l-23.9-36.2c-1-3.9-5-6.3-8.9-5.3
	C710.1,189.8,707.8,192.8,707.9,196.2L707.9,196.2z"/>
<path class="st4" d="M787.5,303c0,0,7.5-16,1.8-23.1c-5.7-7.1-9.8-14.4-13-16.3s-15.9-24.7-19.1-25.3c-3.2-0.7-0.7-4.4-5.2-6.3
	c-4.5-2-5.7-2-5.7-3.3c0-1.3-10.9-16.7-10.9-16.7l-11.2,7l27.4,56L787.5,303z"/>
<path class="st4" d="M629.3,412.4h-85.2c-4.7,0-8.5,3.8-8.5,8.5s3.8,8.5,8.5,8.5c0,0,0,0,0,0h85.2c4.7,0,8.5-3.8,8.5-8.5
	C637.8,416.2,634,412.4,629.3,412.4z"/>
<path class="st0" d="M385.1,287.6h-66.5c-7.4,0-13.4,6-13.4,13.4v62.2c0,7.4,6,13.4,13.4,13.4c0,0,0,0,0,0h33.6
	c25.5,0,46.2-20.7,46.2-46.2V301C398.5,293.6,392.5,287.6,385.1,287.6z"/>
<path class="st0" d="M503.7,287.6h-66.5c-7.4,0-13.4,6-13.4,13.4v62.2c0,7.4,6,13.4,13.4,13.4h33.6c25.5,0,46.2-20.7,46.2-46.2V301
	C517.1,293.6,511.1,287.6,503.7,287.6z"/>
<path class="st0" d="M622.2,287.6h-66.5c-7.4,0-13.4,6-13.4,13.4v62.2c0,7.4,6,13.4,13.4,13.4h33.6c25.5,0,46.2-20.7,46.2-46.2V301
	C635.6,293.6,629.6,287.6,622.2,287.6z"/>
<path class="st0" d="M67.1,556.9c-1.5,0.1-2.9-1.1-2.9-2.7c0-0.8,0.3-1.6,0.9-2.2l0.2-0.8c0-0.1-0.1-0.1-0.1-0.2
	c-1.6-3.8-6-5.6-9.9-4c-1.8,0.8-3.3,2.2-4,4.1c-2.3,5.5-5.2,11-5.9,16.8c-0.3,2.6-0.2,5.2,0.4,7.7c-5.3-11.7-8.1-24.3-8.1-37.1
	c0-3.2,0.2-6.4,0.5-9.6c0.3-2.6,0.7-5.2,1.2-7.8c2.9-14,9-27.2,17.9-38.3c4.3-2.4,7.8-6,10-10.4c0.8-1.6,1.4-3.3,1.7-5
	c-0.5,0.1-1.8-7.4-1.5-7.8c-0.7-1-1.9-1.5-2.6-2.5c-3.7-5-8.8-4.1-11.4,2.7c-5.7,2.9-5.7,7.6-2.2,12.2c2.2,2.9,2.5,6.8,4.5,9.9
	c-0.2,0.3-0.4,0.5-0.6,0.8c-3.7,4.7-6.8,9.7-9.5,15.1c0.6-6-0.1-12-2.3-17.6c-2.2-5.2-6.2-9.6-9.8-14.1c-4.3-5.4-13.1-3.1-13.8,3.8
	c0,0.1,0,0.1,0,0.2c0.5,0.3,1,0.6,1.6,1c1.7,1.2,2.2,3.5,1.1,5.3c-0.6,0.9-1.5,1.5-2.6,1.6l-0.1,0c0.2,1.9,0.5,3.8,1,5.7
	c-4.6,17.7,5.3,24.2,19.4,24.5c0.3,0.2,0.6,0.3,0.9,0.5c-2.7,7.6-4.4,15.5-5,23.5c-0.4,4.7-0.3,9.5,0.1,14.2l0-0.2
	c-1-5.3-3.8-10-8-13.4c-6.1-5-14.8-6.9-21.4-10.9c-2-1.3-4.7-0.7-6,1.3c-0.6,0.9-0.8,1.9-0.7,2.9c0,0.1,0,0.1,0,0.2
	c1,0.4,1.9,0.9,2.9,1.4c0.5,0.3,1,0.6,1.6,1c1.7,1.2,2.2,3.5,1.1,5.3C5,534.5,4,535.1,3,535.2l-0.1,0c-0.1,0-0.1,0-0.2,0
	c1.7,4,4,7.7,7,10.9c2.9,15.5,15.2,16.9,28.3,12.4h0c1.4,6.3,3.5,12.4,6.2,18.2h22.3c0.1-0.2,0.2-0.5,0.2-0.8
	c-2.1,0.1-4.1,0-6.2-0.4c1.7-2,3.3-4.1,5-6.1c0,0,0.1-0.1,0.1-0.1c0.8-1,1.7-2.1,2.5-3.1l0,0C68.3,563.2,67.9,560,67.1,556.9
	L67.1,556.9z"/>
<path class="st4" d="M608.6,31h-205c-8.6,0-15.5-6.9-15.5-15.5S395,0,403.6,0h205c8.6,0,15.5,6.9,15.5,15.5S617.1,31,608.6,31z"/>
<path class="st3" d="M788.1,55.8H224c-1.4,0-2.4-1.2-2.4-2.5c0-1.3,1.1-2.4,2.4-2.4h564.1c1.4,0,2.4,1.2,2.4,2.5
	C790.5,54.7,789.5,55.8,788.1,55.8z"/>
<ellipse class="st7" cx="252.2" cy="15.6" rx="8.5" ry="8.6"/>
<ellipse class="st7" cx="281.4" cy="15.6" rx="8.5" ry="8.6"/>
<ellipse class="st7" cx="310.6" cy="15.6" rx="8.5" ry="8.6"/>
<path class="st7" d="M343.9,22.5c-0.3,0-0.5-0.1-0.7-0.3l-5.7-5.8c-0.4-0.4-0.4-1,0-1.4l5.7-5.8c0.4-0.4,1-0.4,1.4,0
	c0.4,0.4,0.4,1,0,1.4c0,0,0,0,0,0l-5,5.1l5,5.1c0.4,0.4,0.4,1,0,1.4C344.4,22.4,344.2,22.5,343.9,22.5z"/>
<path class="st3" d="M353.5,22.5c-0.6,0-1-0.4-1-1c0-0.3,0.1-0.5,0.3-0.7l5-5.1l-5-5.1c-0.4-0.4-0.4-1,0-1.4c0.4-0.4,1-0.4,1.4,0
	c0,0,0,0,0,0l5.7,5.8c0.4,0.4,0.4,1,0,1.4l-5.7,5.8C354,22.4,353.8,22.5,353.5,22.5z"/>
<path class="st3" d="M729.4,8c-1.2,0-2.2,1-2.2,2.2v10.6c0,1.2,1,2.2,2.2,2.2H740c1.2,0,2.2-1,2.2-2.2V10.2c0-1.2-1-2.2-2.2-2.2
	H729.4z"/>
<path class="st3" d="M703.4,8c-1.2,0-2.2,1-2.2,2.2v10.6c0,1.2,1,2.2,2.2,2.2H714c1.2,0,2.2-1,2.2-2.2V10.2c0-1.2-1-2.2-2.2-2.2
	H703.4z"/>
<path class="st3" d="M753.9,8.5c-1.2,0-2.2,1-2.2,2.2v10.6c0,1.2,1,2.2,2.2,2.2h10.6c1.2,0,2.2-1,2.2-2.2V10.7c0-1.2-1-2.2-2.2-2.2
	H753.9z"/>
<path class="st1" d="M494.5,17.9h-84.8c-1.5,0-2.7-1.2-2.7-2.7s1.2-2.7,2.7-2.7h84.8c1.5,0,2.7,1.2,2.7,2.7S496,17.9,494.5,17.9z"/>
<path class="st3" d="M716.8,452.8c-14.3-19.1-22.6-40.4-22.9-64.7c-1-2.7,0.5-5.7,3.2-6.7l48.9-17.3c2.7-1,5.7,0.5,6.7,3.2
	l22.9,64.7c1,2.7-0.5,5.7-3.2,6.7L723.5,456C720.8,457,717.8,455.6,716.8,452.8z"/>
<path class="st1" d="M713.7,432c-8.6-8.7-12.3-24.3-14.7-41.6c-0.9-2.6,0.4-5.4,3-6.3l42-14.9c2.6-0.9,5.4,0.4,6.3,3l20.4,57.6
	c0.9,2.6-0.4,5.4-3,6.3l-26,9.2C730.2,449.3,717.7,443.3,713.7,432z"/>
<path class="st4" d="M750.8,403.2L718,414.9c-1.1,0.4-2.3-0.2-2.7-1.3c-0.4-1.1,0.2-2.3,1.3-2.7l0,0l32.7-11.7
	c1.1-0.4,2.3,0.2,2.7,1.3C752.4,401.7,751.8,402.9,750.8,403.2z"/>
<path class="st4" d="M721.4,401.6l-7.2,2.6c-1.1,0.4-2.3-0.2-2.7-1.3c-0.4-1.1,0.2-2.3,1.3-2.7l0,0l7.2-2.6c1.1-0.4,2.3,0.2,2.7,1.3
	C723.1,400,722.5,401.2,721.4,401.6C721.4,401.6,721.4,401.6,721.4,401.6L721.4,401.6z"/>
<path class="st4" d="M756.9,420.5l-32.7,11.7c-1.1,0.4-2.3-0.2-2.7-1.3c-0.4-1.1,0.2-2.3,1.3-2.7l32.7-11.7c1.1-0.4,2.3,0.2,2.7,1.3
	C758.6,418.9,758,420.1,756.9,420.5L756.9,420.5z"/>
<path class="st4" d="M753.8,411.9l-32.7,11.7c-1.1,0.4-2.3-0.2-2.7-1.3c-0.4-1.1,0.2-2.3,1.3-2.7l32.7-11.7c1.1-0.4,2.3,0.2,2.7,1.3
	C755.5,410.3,754.9,411.5,753.8,411.9L753.8,411.9z"/>
<circle class="st5" cx="778.3" cy="241.7" r="16.9"/>
<path class="st6" d="M760.5,239.5c0.9,0.6,2,0.9,3.1,0.8c0.2-1.3,0.3-2.6,0.1-3.9c0.6,1.2,1.1,2.4,1.4,3.7c3-0.7,2.9-1.6,6-1.1
	c3.4,0.7,5.6,4.1,4.9,7.5c0,0.1-0.1,0.3-0.1,0.4c0.7-1.4,3.4-0.8,3.8,0.9c0.5,1.7-0.6,3.5-1.6,5c-3.6,5.3,5.7,15.1,2.1,20.4
	l-0.5,0.6c3.2-1.6,6.2-3.6,8.9-5.8c-0.5-2.1-0.6-4.3-0.2-6.4c0.4,1.8,1.4,3.3,2.7,4.5c10.2-8,22.5-19.6,20.3-22.4l-6.9-12.1
	c-7.2-12.7-24.7-17.9-35.5-8c-0.3,0.3-0.9,0.1-1.2,0.4c-3.1,0.8-7.1,2.3-9.1,4.7C756.7,231.3,757.8,237.7,760.5,239.5z"/>
<polygon class="st8" points="173.6,567 183.2,567 187.8,529.7 173.6,529.7 "/>
<path class="st6" d="M173.2,577.1l29.8,0v-0.4c0-6.4-5.2-11.6-11.6-11.6h0L186,561l-10.1,4.1h-2.6L173.2,577.1z"/>
<polygon class="st8" points="215.6,520.7 224.6,524.5 243.1,491.7 229.9,486.3 "/>
<path class="st6" d="M211.4,529.9l27.5,11.4l0.1-0.3c2.4-5.9-0.4-12.7-6.3-15.1l0,0l-3.4-5.9l-10.9-0.1l-2.4-1L211.4,529.9z"/>
<path class="st6" d="M162.5,354.7l68.7,7.2l9.2,30.9l31.8,51.1c0,0-22.2,37.4-20.1,36.9s-2.1,9.8-5,9.2s-6,6-3.9,7.2
	s-6.1,11.2-6.1,11.2l-12.4-11.1c-2.6-19.8,0.5-37.5,11.9-52.1L201.1,407l-6.7-2.8l0,0L189,546.2l-19.7,0.3
	c-5.4-28-8.2-53.2-3.9-71.2c0,0-0.6-54-2.9-53.4s-0.4-6.4-0.4-6.4s2-6-0.5-8.5s-0.9-17.1-0.9-17.1
	C156.5,376,157.8,364.6,162.5,354.7z"/>
<path class="st7" d="M187.7,256.8l11.3-12.7l17.8,2l11.4,16l0,0c12.6,2.9,20.7,15.1,18.5,27.9c-4.4,25.5-19.5,50.2-14.5,62.8
	c7.5,19.1,8,26.9-10,24.2s-78.5-8.8-66.8-20.6s14.3-31.3,14.3-31.3l0.5-44.8c-2-10.8,5.2-21.2,16-23.2
	C186.6,256.9,187.1,256.8,187.7,256.8L187.7,256.8z"/>
<circle class="st8" cx="209.7" cy="221.1" r="19.8"/>
<path class="st6" d="M185.3,219.9c0.9,4,2.5,7.8,4.7,11.3c0.6,1.2,1.5,2.2,2.6,2.9c1.1,0.7,2.6,0.5,3.6-0.4l0.5-0.4
	c-0.9-0.6-1.8-1.3-2.5-2.2c-0.7-0.9-1-2-0.7-3.1c0.4-1.1,1.5-1.7,2.6-1.4c1.2,0.5,1.9,2.1,3.1,1.9c1-0.2,1.2-1.5,1.2-2.5
	c0-5.3,2.5-12.8,4.5-12.6c2,0.1,4-0.2,5.9-0.8c1.9-0.6,3.9-0.9,5.9-0.8c0.1,0,0.3,0,0.4,0.1c0.3-1,0.8-2,1.3-2.9
	c-0.1,1.1,0,2.2,0.2,3.3c1.6,0.7,3.2,1.2,4.9,1.6c1.8,0.3,5.9,5.7,6.1,5.2c0.3-1,0.8-2,1.3-2.9c-0.1,1.1,0,2.2,0.2,3.3
	c0,0,0,0.1,0,0.1c0.9-1.2,1.4-2.6,1.1-1.5c3-6.7,1.8-11.6-2.9-17.3c-0.9-1.2-2.1-2.2-3.5-2.8c-1.4-0.6-3.1-0.5-4.3,0.4
	c-3.9-3.6-9.4-4.8-14.4-3.1c-4.9,1.7-8.7,2.7-9.4,7.8c-4-0.6-8.2,1.6-10.4,5.1C185.2,211.7,184.5,215.9,185.3,219.9z"/>
<path class="st3" d="M272,320.3h-10.4c-2.1,0-3.8,1.7-3.8,3.8l0,0c0,2.1-1.7,3.8-3.8,3.8h-34.7c-2.1,0-3.8-1.7-3.8-3.8l-0.7-3.8
	l0,0.1l0-0.1l-6.3-8c-0.4-0.5-1.1-0.9-1.7-0.8H195c-1.2,0-2.2,1-2.2,2.2l-0.2,6.7h-4.5c-3.9,0-7.1,3.2-7.1,7.1v46.5
	c0,3.5,2.8,6.3,6.3,6.3l0,0H272c3.5,0,6.3-2.8,6.3-6.3v-47.2C278.3,323.2,275.4,320.3,272,320.3L272,320.3z"/>
<path class="st3" d="M214.9,320.1h-22.1v-6.7c0-1.2,1-2.2,2.2-2.2h11.8c0.7,0,1.3,0.3,1.7,0.8L214.9,320.1z"/>
<path class="st1" d="M226.2,375.1h-36.9c-2.4,0-4.4-2-4.4-4.4v-10.1c0-2.4,2-4.4,4.4-4.4h44.2c2.4,0,4.4,2,4.4,4.4v2.7
	C238,369.8,232.7,375.1,226.2,375.1z"/>
<path class="st0" d="M199.9,363.8h-9.1c-1.2,0-2.2-1-2.2-2.2c0-1.2,1-2.2,2.2-2.2h9.1c1.2,0,2.2,1,2.2,2.2
	C202.2,362.8,201.2,363.8,199.9,363.8z"/>
<path class="st0" d="M230.8,370.9h-40c-1.2,0-2.2-1-2.2-2.2c0-1.2,1-2.2,2.2-2.2h40c1.2,0,2.2,1,2.2,2.2
	C233.1,369.9,232.1,370.9,230.8,370.9z"/>
<path class="st8" d="M259.7,288.2l-8.4,13.9c6.3,8.5,16.8,19.7,16.8,19.7l-20.1,9.3c-3.1-3.1-8.2-3.2-11.3-0.1
	c-3.1,3.1-3.2,8.2-0.1,11.3c3.1,3.1,8.1,3.2,11.3,0.1l0,0.3c-0.3-1.5,12.6-2.6,28-6.8c11.1-3.1,14.3-22,13.3-22.3l-7.5-13.1
	L259.7,288.2z"/>
<path class="st7" d="M217.7,273.2L217.7,273.2c5-8,15.5-10.5,23.6-5.6c0.9,0.6,1.7,1.2,2.5,1.9l7.6,6.9c0,0,28.7,18.3,33.6,28
	l-20,17c0,0-4.9-12.4-12.6-12.4c-4.7,0-18.5-5.9-29.1-12.3C215.2,291.8,212.7,281.3,217.7,273.2
	C217.7,273.3,217.7,273.3,217.7,273.2z"/>
<path class="st1" d="M461.2,399.5h-24.6c-2.3,0-4.3-1.3-5.3-3.4c-4.7-10.4-3.5-20.7,0.3-30.9c0.8-2.2,3-3.7,5.4-3.7H461
	c3.2,0,5.8,2.6,5.8,5.8c0,0.8-0.2,1.6-0.5,2.3c-3,6.9-3,14.2,0.3,22c1.2,2.9-0.1,6.3-3.1,7.6C462.8,399.3,462,399.5,461.2,399.5z"/>
<path class="st2" d="M461.2,400h-24.6c-2.5,0-4.7-1.4-5.7-3.7c-4.2-9.3-4.1-19.2,0.3-31.3c0.9-2.4,3.3-4.1,5.9-4
	c7.3-3.6,15.4-3.1,23.9,0c3.5,0,6.3,2.8,6.3,6.3c0,0.8-0.2,1.7-0.5,2.5c-3,6.9-2.9,14.2,0.3,21.6c0.8,1.9,0.6,4.1-0.5,5.9
	C465.3,398.9,463.3,400,461.2,400z M437.1,362c-2.2,0-4.2,1.3-4.9,3.4c-4.3,11.8-4.4,21.5-0.3,30.5c0.9,1.9,2.7,3.1,4.8,3.1h24.6
	c1.8,0,3.4-0.9,4.4-2.4c1-1.5,1.1-3.3,0.4-4.9c-3.3-7.6-3.4-15.2-0.3-22.3c1.1-2.7-0.1-5.8-2.8-6.9c-0.7-0.3-1.4-0.4-2.1-0.4H437.1z
	"/>
<path class="st3" d="M456.1,375h-17c-1.4,0-2.5-1.1-2.5-2.5s1.1-2.5,2.5-2.5h17c1.4,0,2.5,1.1,2.5,2.5S457.5,375,456.1,375z"/>
<path class="st3" d="M456.1,384.5h-17c-1.4,0-2.5-1.1-2.5-2.5s1.1-2.5,2.5-2.5h17c1.4,0,2.5,1.1,2.5,2.5S457.5,384.5,456.1,384.5z"
	/>
<path class="st3" d="M456.1,394h-17c-1.4,0-2.5-1.1-2.5-2.5s1.1-2.5,2.5-2.5h17c1.4,0,2.5,1.1,2.5,2.5S457.5,394,456.1,394z"/>
<path class="st1" d="M637.2,458.5h-24.6c-2.3,0-4.3-1.3-5.3-3.4c-4.7-10.4-3.5-20.7,0.3-30.9c0.8-2.2,3-3.7,5.4-3.7H637
	c3.2,0,5.8,2.6,5.8,5.8c0,0.8-0.2,1.6-0.5,2.3c-3,6.9-3,14.2,0.3,22c1.2,2.9-0.1,6.3-3.1,7.6C638.8,458.3,638,458.5,637.2,458.5z"/>
<path class="st2" d="M637.2,459h-24.6c-2.5,0-4.7-1.4-5.7-3.7c-4.2-9.3-4.1-19.2,0.3-31.3c0.9-2.4,3.3-4.1,5.9-4
	c7.5-5,15.6-4.5,23.9,0c3.5,0,6.3,2.8,6.3,6.3c0,0.8-0.2,1.7-0.5,2.5c-3,6.9-2.9,14.2,0.3,21.6c0.8,1.9,0.6,4.1-0.5,5.9
	C641.3,457.9,639.3,459,637.2,459z M613.1,421c-2.2,0-4.2,1.3-4.9,3.4c-4.3,11.8-4.4,21.5-0.3,30.5c0.9,1.9,2.7,3.1,4.8,3.1h24.6
	c1.8,0,3.4-0.9,4.4-2.4c1-1.5,1.1-3.3,0.4-4.9c-3.3-7.6-3.4-15.2-0.3-22.3c1.1-2.7-0.1-5.8-2.8-6.9c-0.7-0.3-1.4-0.4-2.1-0.4H613.1z
	"/>
<path class="st3" d="M632.1,434h-17c-1.4,0-2.5-1.1-2.5-2.5s1.1-2.5,2.5-2.5h17c1.4,0,2.5,1.1,2.5,2.5S633.5,434,632.1,434z"/>
<path class="st3" d="M632.1,443.5h-17c-1.4,0-2.5-1.1-2.5-2.5s1.1-2.5,2.5-2.5h17c1.4,0,2.5,1.1,2.5,2.5S633.5,443.5,632.1,443.5z"
	/>
<path class="st3" d="M632.1,453h-17c-1.4,0-2.5-1.1-2.5-2.5s1.1-2.5,2.5-2.5h17c1.4,0,2.5,1.1,2.5,2.5S633.5,453,632.1,453z"/>
<path class="st3" d="M184.8,460.8c-14.3-19.1-22.6-40.4-22.9-64.7c-1-2.7,0.5-5.7,3.2-6.7l48.9-17.3c2.7-1,5.7,0.5,6.7,3.2
	l22.9,64.7c1,2.7-0.5,5.7-3.2,6.7L191.5,464C188.8,465,185.8,463.6,184.8,460.8z"/>
<path class="st1" d="M181.7,440c-8.6-8.7-12.3-24.3-14.7-41.6c-0.9-2.6,0.4-5.4,3-6.3l42-14.9c2.6-0.9,5.4,0.4,6.3,3l20.4,57.6
	c0.9,2.6-0.4,5.4-3,6.3l-26,9.2C198.2,457.3,185.7,451.3,181.7,440z"/>
<path class="st4" d="M218.8,411.2L186,422.9c-1.1,0.4-2.3-0.2-2.7-1.3c-0.4-1.1,0.2-2.3,1.3-2.7l32.7-11.7c1.1-0.4,2.3,0.2,2.7,1.3
	C220.4,409.7,219.8,410.9,218.8,411.2L218.8,411.2z"/>
<path class="st4" d="M189.4,409.6l-7.2,2.6c-1.1,0.4-2.3-0.2-2.7-1.3c-0.4-1.1,0.2-2.3,1.3-2.7l7.2-2.6c1.1-0.4,2.3,0.2,2.7,1.3
	C191.1,408,190.5,409.2,189.4,409.6C189.4,409.6,189.4,409.6,189.4,409.6L189.4,409.6z"/>
<path class="st4" d="M224.9,428.5l-32.7,11.7c-1.1,0.4-2.3-0.2-2.7-1.3c-0.4-1.1,0.2-2.3,1.3-2.7l32.7-11.7c1.1-0.4,2.3,0.2,2.7,1.3
	C226.6,426.9,226,428.1,224.9,428.5L224.9,428.5z"/>
<path class="st4" d="M221.8,419.9l-32.7,11.7c-1.1,0.4-2.3-0.2-2.7-1.3c-0.4-1.1,0.2-2.3,1.3-2.7l32.7-11.7c1.1-0.4,2.3,0.2,2.7,1.3
	C223.5,418.3,222.9,419.5,221.8,419.9z"/>
<path class="st8" d="M174,305.2l16.1-2.3c5.4,9.1,7.4,33.3,7.4,33.3l15.7,37.4c3.3,2.2,4.1,6.7,1.9,10c-2.2,3.3-6.7,4.1-10,1.9
	c-2.1-1.4-3.3-3.9-3.1-6.5l-25.8-43.5L174,305.2z"/>
<path class="st7" d="M182.7,260.6L182.7,260.6c-9.3,1.4-15.7,10.2-14.3,19.5c0.2,1,0.4,2.1,0.8,3.1l3.4,9.7c0,0-4.3,29.1,2.8,37.3
	l21.7-2c0,0-4-14.7-0.9-21.8c1.9-4.3,1.8-19.4-0.1-31.6C194.6,265.5,192,259.1,182.7,260.6z"/>
<path class="st9" d="M1023.1,579.4L1.3,578.7c-0.7,0-1.2-0.5-1.2-1.2s0.5-1.2,1.2-1.2c0,0,0,0,0,0l1021.8,0.7c0.7,0,1.2,0.5,1.2,1.2
	S1023.7,579.4,1023.1,579.4C1023.1,579.4,1023.1,579.4,1023.1,579.4z"/>
<path class="st3" d="M773.7,370.7c-13.8-7.3-24.6-17.7-31.5-32.1c-1.3-1.4-1.3-3.5,0-4.9l24.2-23.8c1.4-1.3,3.5-1.3,4.9,0l31.5,32.1
	c1.3,1.4,1.3,3.5,0,4.9l-24.2,23.8C777.2,372.1,775,372.1,773.7,370.7z"/>
<path class="st1" d="M766.1,359.2c-7.5-2.8-14-11-20.2-20.6c-1.2-1.3-1.2-3.3,0-4.5l20.8-20.4c1.3-1.2,3.3-1.2,4.5,0l28,28.5
	c1.2,1.3,1.2,3.3,0,4.5l-12.9,12.7C780.6,364.9,771.6,364.8,766.1,359.2z"/>
<path class="st4" d="M780.1,331.9l-16.2,16c-0.5,0.5-1.4,0.5-1.9,0c-0.5-0.5-0.5-1.4,0-1.9l16.2-16c0.5-0.5,1.4-0.5,1.9,0
	C780.7,330.5,780.6,331.4,780.1,331.9L780.1,331.9z"/>
<path class="st4" d="M762.2,339l-3.6,3.5c-0.5,0.5-1.4,0.5-1.9,0c-0.5-0.5-0.5-1.4,0-1.9c0,0,0,0,0,0l3.6-3.5c0.5-0.5,1.4-0.5,1.9,0
	C762.8,337.6,762.8,338.5,762.2,339C762.2,339,762.2,339,762.2,339z"/>
<path class="st10" d="M788.5,340.4l-16.2,16c-0.5,0.5-1.4,0.5-1.9,0c-0.5-0.5-0.5-1.4,0-1.9l16.2-16c0.5-0.5,1.4-0.5,1.9,0
	C789.1,339.1,789.1,339.9,788.5,340.4L788.5,340.4z"/>
<path class="st4" d="M784.3,336.2l-16.2,16c-0.5,0.5-1.4,0.5-1.9,0c-0.5-0.5-0.5-1.4,0-1.9c0,0,0,0,0,0l16.2-16
	c0.5-0.5,1.4-0.5,1.9,0C784.9,334.8,784.9,335.6,784.3,336.2C784.3,336.2,784.3,336.2,784.3,336.2L784.3,336.2z"/>
<path class="st5" d="M749.6,403.9c-0.8-4,1.8-7.8,5.8-8.6c0.4-0.1,0.8-0.1,1.2-0.1l13.3-34l10.3,1.4l-16.1,40.3
	c-0.2,4-3.6,7.2-7.6,7C753.1,409.7,750.3,407.2,749.6,403.9z"/>
<path class="st4" d="M806.2,283.3c0,0,10.5,14.2,6.4,22.3s-6.8,16-9.5,18.6c-2.7,2.6-10.6,27.3-13.6,28.6s0.2,4.4-3.8,7.2
	s-5.2,3.1-5,4.4s-7.3,18.5-7.3,18.5l-12.4-4.6l26.4-91.7L806.2,283.3z"/>
<path class="st11" d="M656.9,312c5.2,3.5,10.9,7.5,12.6,13.9c0.8,2.8,0.4,5.7-1.1,8.2c-1.4,2.1-3.2,4-5.2,5.6
	c-2.4,1.9-4.5,4-6.4,6.4c-0.8,1.1,1.1,2.2,1.9,1.1c3.3-4.6,8.8-7.2,11.7-12.1c3.4-5.8,1.1-12.8-3.1-17.5c-2.8-2.8-5.9-5.3-9.2-7.4
	C656.9,309.4,655.8,311.2,656.9,312z"/>
<path class="st11" d="M675,312c5.2,3.5,10.9,7.5,12.6,13.9c0.8,2.8,0.4,5.7-1.1,8.2c-1.4,2.1-3.2,4-5.2,5.6c-2.4,1.9-4.5,4-6.4,6.4
	c-0.8,1.1,1.1,2.2,1.9,1.1c3.3-4.6,8.8-7.2,11.7-12.1c3.4-5.8,1.1-12.8-3.1-17.5c-2.8-2.8-5.9-5.3-9.2-7.4
	C674.9,309.4,673.8,311.2,675,312z"/>
</svg>
