<svg id="visual" viewBox="0 0 960 540" width="960" height="540" xmlns="http://www.w3.org/2000/svg" xmlns:xlink="http://www.w3.org/1999/xlink" version="1.1"><path d="M0 84L13.3 83.7C26.7 83.3 53.3 82.7 80 79.3C106.7 76 133.3 70 160 77.2C186.7 84.3 213.3 104.7 240 108.2C266.7 111.7 293.3 98.3 320 88.3C346.7 78.3 373.3 71.7 400 67.3C426.7 63 453.3 61 480 71C506.7 81 533.3 103 560 103.5C586.7 104 613.3 83 640 79.8C666.7 76.7 693.3 91.3 720 89.3C746.7 87.3 773.3 68.7 800 60C826.7 51.3 853.3 52.7 880 56.2C906.7 59.7 933.3 65.3 946.7 68.2L960 71L960 0L946.7 0C933.3 0 906.7 0 880 0C853.3 0 826.7 0 800 0C773.3 0 746.7 0 720 0C693.3 0 666.7 0 640 0C613.3 0 586.7 0 560 0C533.3 0 506.7 0 480 0C453.3 0 426.7 0 400 0C373.3 0 346.7 0 320 0C293.3 0 266.7 0 240 0C213.3 0 186.7 0 160 0C133.3 0 106.7 0 80 0C53.3 0 26.7 0 13.3 0L0 0Z" fill="#041C32" stroke-linecap="round" stroke-linejoin="miter"></path></svg>